#!OML:ASF H:\Terrain\Patient Classification 1\Walking\steve\steve.ASF
:FULLY-SPECIFIED
:DEGREES
1
root 7.6252 15.3618 -36.1658 6.97266 -5.19214 2.37652
lowerback -0.500499 1.09013 -3.54325
upperback -3.37078 1.40442 -0.0790854
thorax -3.27274 0.800488 1.86854
lowerneck -7.62143 0.787395 -1.88684
upperneck 16.3275 0.796108 3.26422
head 6.17673 0.523089 1.40808
rclavicle -1.1772e-014 1.2921e-014
rhumerus -54.1437 -9.96701 -76.3962
rradius 23.8222
rwrist 10.3048
rhand -19.0644 -35.7384
rfingers 7.12502
rthumb 7.24299 -65.5945
lclavicle -1.1772e-014 1.2921e-014
lhumerus -16.4067 -16.3988 90.8193
lradius 37.8516
lwrist 14.8153
lhand -26.7563 -18.4064
lfingers 7.12502
lthumb -0.184723 11.5733
rfemur -38.3374 2.29377 21.3764
rtibia 50.8979
rfoot -22.009 1.34122
rtoes -11.0333
lfemur -10.2999 1.55843 -28.1115
ltibia 29.2161
lfoot -19.0701 -6.96103
ltoes 3.19287
2
root 7.63131 15.3594 -35.9961 6.84509 -4.64306 2.3301
lowerback -0.508519 0.819161 -3.33511
upperback -3.28149 1.04945 -0.00281194
thorax -3.15103 0.615618 1.84098
lowerneck -7.72341 0.919991 -1.52139
upperneck 16.5271 0.975195 2.94733
head 6.25727 0.608533 1.26279
rclavicle 2.19401e-015 3.18055e-015
rhumerus -54.3021 -10.4146 -75.7925
rradius 23.7194
rwrist 11.1089
rhand -18.6297 -35.6374
rfingers 7.12502
rthumb 7.6626 -65.4786
lclavicle 2.19401e-015 3.18055e-015
lhumerus -15.5042 -17.2743 90.6264
lradius 38.7159
lwrist 14.9153
lhand -26.5135 -18.1966
lfingers 7.12502
lthumb 0.0497518 11.7831
rfemur -39.1031 2.45525 21.3032
rtibia 49.6792
rfoot -21.5958 1.48312
rtoes -11.2807
lfemur -8.98086 1.3452 -28.0144
ltibia 28.1875
lfoot -18.5781 -7.7688
ltoes 5.82003
3
root 7.63489 15.3547 -35.8258 6.73162 -4.07843 2.56779
lowerback -0.401155 0.526213 -3.54077
upperback -3.29727 0.653386 0.0914548
thorax -3.20978 0.426243 2.0619
lowerneck -7.69359 0.976549 -1.83477
upperneck 16.6971 1.06686 3.10633
head 6.30032 0.646067 1.37377
rclavicle -1.6833e-014 -9.54166e-015
rhumerus -54.5661 -10.2499 -75.5914
rradius 24.0779
rwrist 10.2524
rhand -17.3283 -34.5949
rfingers 7.12502
rthumb 8.91859 -64.3865
lclavicle -1.6833e-014 -9.54166e-015
lhumerus -14.7431 -17.8983 90.5351
lradius 39.4604
lwrist 15.0992
lhand -26.5324 -18.6408
lfingers 7.12502
lthumb 0.0315783 11.339
rfemur -39.9133 2.47393 20.937
rtibia 48.4139
rfoot -20.9662 1.50934
rtoes -12.5869
lfemur -7.71325 1.32183 -28.199
ltibia 27.2191
lfoot -18.3044 -8.49833
ltoes 6.95695
4
root 7.6369 15.3553 -35.6552 6.62954 -3.62416 2.94606
lowerback -0.348604 0.374402 -3.8686
upperback -3.30711 0.442329 0.0496388
thorax -3.2403 0.330123 2.20754
lowerneck -7.47365 0.930646 -2.13771
upperneck 16.5209 1.01027 3.32571
head 6.20401 0.615396 1.48594
rclavicle -8.02477e-015 1.05356e-014
rhumerus -54.9591 -10.5477 -75.0746
rradius 24.2842
rwrist 9.8565
rhand -16.7806 -35.3783
rfingers 7.12502
rthumb 9.44703 -65.1466
lclavicle -8.02477e-015 1.05356e-014
lhumerus -13.9785 -19.0656 90.3458
lradius 40.2629
lwrist 15.7835
lhand -26.6431 -19.1826
lfingers 7.12502
lthumb -0.0753457 10.7971
rfemur -40.6697 2.53334 20.3963
rtibia 46.9961
rfoot -19.9522 1.48108
rtoes -12.451
lfemur -6.57537 1.50306 -28.5411
ltibia 26.4082
lfoot -18.4162 -8.62542
ltoes 4.23219
5
root 7.63504 15.3574 -35.4858 6.54537 -3.25132 2.99968
lowerback -0.426293 0.266373 -3.89268
upperback -3.20172 0.303694 0.053353
thorax -3.07801 0.257085 2.22911
lowerneck -7.21432 0.822161 -1.98318
upperneck 16.0451 0.877284 3.13325
head 6.01491 0.542965 1.38265
rclavicle -4.02653e-015 -5.96354e-015
rhumerus -55.1574 -10.347 -75.6168
rradius 24.1919
rwrist 8.18819
rhand -19.2196 -34.3283
rfingers 7.12502
rthumb 7.09318 -64.1894
lclavicle -4.02653e-015 -5.96354e-015
lhumerus -13.1878 -20.4921 89.9837
lradius 41.3345
lwrist 16.5797
lhand -26.5147 -19.352
lfingers 7.12502
lthumb 0.0486039 10.6277
rfemur -41.4537 2.80086 20.1731
rtibia 45.7493
rfoot -18.9626 1.24256
rtoes -11.6101
lfemur -5.30868 1.65087 -28.4923
ltibia 25.0232
lfoot -17.7184 -8.9522
ltoes 4.30697
6
root 7.63073 15.3432 -35.3186 6.76071 -2.72518 2.09883
lowerback -0.657864 0.0284466 -3.03276
upperback -3.21423 0.0148939 0.440276
thorax -2.93689 0.093432 2.15214
lowerneck -7.23363 0.922985 -1.75147
upperneck 16.1221 1.00384 2.99747
head 6.0415 0.60805 1.31118
rclavicle 1.45575e-015 2.18663e-015
rhumerus -55.2275 -9.84048 -75.9797
rradius 23.9317
rwrist 7.01407
rhand -20.7092 -32.052
rfingers 7.12502
rthumb 5.65508 -61.9566
lclavicle 1.45575e-015 2.18663e-015
lhumerus -12.6306 -20.9688 89.7835
lradius 42.5353
lwrist 16.6849
lhand -26.4286 -19.2661
lfingers 7.12502
lthumb 0.131772 10.7136
rfemur -42.3882 3.23077 20.9413
rtibia 44.3177
rfoot -18.2384 0.8218
rtoes -9.93293
lfemur -4.5594 1.41497 -27.3216
ltibia 23.8303
lfoot -15.6715 -11.0305
ltoes 16.1521
7
root 7.64377 15.2962 -35.1043 6.13838 -2.33395 3.18298
lowerback -0.78452 -0.191631 -3.85413
upperback -2.94314 -0.282604 0.189027
thorax -2.56796 -0.0483906 2.3584
lowerneck -6.9345 0.901703 -2.01277
upperneck 15.754 1.02946 2.88721
head 5.87241 0.594496 1.31562
rclavicle 2.00357e-015 4.37326e-015
rhumerus -55.3887 -9.75768 -75.6903
rradius 24.1735
rwrist 6.82838
rhand -19.2579 -32.8486
rfingers 7.12502
rthumb 7.05621 -62.7109
lclavicle 2.00357e-015 4.37326e-015
lhumerus -12.0516 -20.8325 89.7698
lradius 43.4342
lwrist 16.1687
lhand -26.3757 -19.1695
lfingers 7.12502
lthumb 0.182892 10.8102
rfemur -42.5415 2.60748 19.7585
rtibia 43.1306
rfoot -17.5101 1.48133
rtoes -7.88247
lfemur -2.64105 1.25197 -28.4315
ltibia 22.5229
lfoot -12.5216 -14.1884
ltoes 31.5843
8
root 7.6387 15.3089 -34.9289 5.99579 -2.13921 3.74272
lowerback -0.928692 -0.239534 -4.42608
upperback -2.82564 -0.343344 0.0544845
thorax -2.3613 -0.0735033 2.54035
lowerneck -6.93066 0.905567 -1.9379
upperneck 15.8123 0.999833 3.03809
head 5.89012 0.595668 1.34929
rclavicle -1.16434e-014 -2.38542e-015
rhumerus -55.6166 -10.1449 -75.3297
rradius 24.4467
rwrist 6.9422
rhand -18.3405 -33.5774
rfingers 7.12502
rthumb 7.94173 -63.4082
lclavicle -1.16434e-014 -2.38542e-015
lhumerus -11.206 -20.9614 89.6509
lradius 44.1289
lwrist 15.7374
lhand -26.0997 -18.8665
lfingers 7.12502
lthumb 0.449484 11.1128
rfemur -43.0596 2.75006 19.0267
rtibia 41.6726
rfoot -16.3904 1.64363
rtoes -6.20441
lfemur -0.68436 2.6562 -28.9649
ltibia 21.2038
lfoot -15.5772 -11.4463
ltoes 10.8419
9
root 7.63025 15.2886 -34.7728 6.08926 -1.83265 3.99013
lowerback -0.902836 -0.3478 -4.79148
upperback -2.84275 -0.491262 0.0738009
thorax -2.38103 -0.138305 2.76703
lowerneck -6.98115 0.920746 -1.78305
upperneck 15.8628 0.997171 3.05413
head 5.91567 0.605044 1.32938
rclavicle -5.20063e-015 -1.03368e-014
rhumerus -55.8891 -10.2501 -75.2603
rradius 24.0614
rwrist 7.14647
rhand -20.715 -31.6346
rfingers 7.12502
rthumb 5.64955 -61.5393
lclavicle -5.20063e-015 -1.03368e-014
lhumerus -10.4776 -21.3607 89.3964
lradius 44.8177
lwrist 15.7443
lhand -25.6394 -18.8829
lfingers 7.12502
lthumb 0.894013 11.0949
rfemur -44.0128 3.34293 18.3911
rtibia 40.3319
rfoot -15.3677 1.41282
rtoes -5.92165
lfemur 0.855413 3.12505 -29.0886
ltibia 19.654
lfoot -15.6004 -11.146
ltoes 6.37222
